#!OML:ASF X:\für Bonn\!DataBase\2005_08_11_Bastian_Final\c3d\Bastian.ASF
:FULLY-SPECIFIED
:DEGREES
143
root -21.6945 17.6232 0.20366 82.0105 -80.3483 -86.966
lowerback 6.73657 4.16476 8.65653
upperback 3.32529 5.93888 -3.2368
thorax 0.962724 3.13384 -8.55873
lowerneck -8.8129 -11.2689 -3.84567
upperneck -13.6483 -14.3578 15.6484
head -1.14172 -7.60354 4.95266
rclavicle -1.23246e-014 3.97569e-014
rhumerus 55.1058 12.4482 13.8602
rradius 31.6557
rwrist -40.8425
rhand -1.67079 -10.3505
rfingers 7.12502
rthumb 23.9891 -38.8715
lclavicle -1.23246e-014 3.97569e-014
lhumerus -25.9763 -5.99092 78.9317
lradius 7.9383
lwrist 3.16274
lhand -10.918 -5.52333
lfingers 7.12502
lthumb 15.0995 23.9059
rfemur 9.74222 2.46028 26.3325
rtibia 29.4553
rfoot -10.1145 -0.533337
rtoes -27.571
lfemur -7.61442 3.96339 -11.7812
ltibia 28.4995
lfoot -7.55945 -11.8828
ltoes -1.89517
144
root -21.6967 17.6233 0.204089 81.8313 -80.35 -86.7613
lowerback 6.7295 4.16092 8.60827
upperback 3.33498 5.92952 -3.25054
thorax 0.971031 3.12907 -8.54473
lowerneck -8.66246 -11.2824 -3.86536
upperneck -13.7801 -14.3626 15.7478
head -1.19295 -7.61925 4.99872
rclavicle 2.66371e-014 -1.74931e-014
rhumerus 55.0272 12.2359 13.1427
rradius 31.5351
rwrist -40.8601
rhand -1.68451 -10.3981
rfingers 7.12502
rthumb 23.976 -38.9209
lclavicle 2.66371e-014 -1.74931e-014
lhumerus -26.1999 -5.77768 78.7559
lradius 8.13679
lwrist 3.36286
lhand -10.8918 -5.66871
lfingers 7.12502
lthumb 15.1247 23.7586
rfemur 9.73147 2.42225 26.3137
rtibia 29.4423
rfoot -10.1212 -0.506124
rtoes -27.6195
lfemur -7.63509 3.90298 -11.7965
ltibia 28.4936
lfoot -7.56262 -11.834
ltoes -1.90822
145
root -21.699 17.6244 0.203561 81.7579 -80.3449 -86.6518
lowerback 6.69973 4.16464 8.54207
upperback 3.35043 5.92741 -3.25008
thorax 0.995839 3.12841 -8.50296
lowerneck -8.54103 -11.2962 -3.85671
upperneck -13.9053 -14.3716 15.8111
head -1.24292 -7.63634 5.02827
rclavicle -2.54444e-014 7.95139e-015
rhumerus 54.9237 11.9778 12.3835
rradius 31.4575
rwrist -40.8406
rhand -1.79216 -10.4942
rfingers 7.12502
rthumb 23.8727 -39.0306
lclavicle -2.54444e-014 7.95139e-015
lhumerus -26.3582 -5.55152 78.5932
lradius 8.26263
lwrist 3.55017
lhand -10.9205 -5.84749
lfingers 7.12502
lthumb 15.0971 23.5819
rfemur 9.71173 2.41208 26.3148
rtibia 29.42
rfoot -10.1158 -0.497736
rtoes -27.5437
lfemur -7.66471 3.88163 -11.7899
ltibia 28.4924
lfoot -7.54297 -11.8361
ltoes -1.69472
146
root -21.7015 17.6251 0.202334 81.6651 -80.3399 -86.5394
lowerback 6.67024 4.16034 8.45929
upperback 3.38045 5.91306 -3.23477
thorax 1.02969 3.12185 -8.43491
lowerneck -8.43143 -11.3033 -3.9059
upperneck -14.0183 -14.3674 15.8959
head -1.28213 -7.64383 5.07182
rclavicle 4.77083e-015 -1.90833e-014
rhumerus 54.843 11.6929 11.6441
rradius 31.423
rwrist -40.8763
rhand -1.98985 -10.6355
rfingers 7.12502
rthumb 23.6831 -39.1965
lclavicle 4.77083e-015 -1.90833e-014
lhumerus -26.5074 -5.28275 78.4559
lradius 8.39849
lwrist 3.76655
lhand -10.9372 -5.99322
lfingers 7.12502
lthumb 15.081 23.4374
rfemur 9.71051 2.38633 26.3173
rtibia 29.4029
rfoot -10.1153 -0.483667
rtoes -27.5617
lfemur -7.67544 3.86261 -11.7844
ltibia 28.4868
lfoot -7.54216 -11.8183
ltoes -1.69328
147
root -21.7044 17.6263 0.200943 81.6038 -80.3164 -86.4417
lowerback 6.61764 4.15682 8.40992
upperback 3.39338 5.90107 -3.23458
thorax 1.06439 3.11701 -8.40093
lowerneck -8.26053 -11.3009 -3.89509
upperneck -14.1691 -14.3522 15.9712
head -1.34868 -7.65232 5.11027
rclavicle -5.54609e-014 3.97569e-014
rhumerus 54.7397 11.4154 10.8158
rradius 31.4137
rwrist -40.872
rhand -2.26041 -10.7515
rfingers 7.12502
rthumb 23.4236 -39.3459
lclavicle -5.54609e-014 3.97569e-014
lhumerus -26.6374 -5.03936 78.2794
lradius 8.49577
lwrist 3.96908
lhand -10.9565 -6.13998
lfingers 7.12502
lthumb 15.0624 23.2921
rfemur 9.69599 2.40391 26.3557
rtibia 29.3781
rfoot -10.1086 -0.511058
rtoes -27.539
lfemur -7.70674 3.90469 -11.7509
ltibia 28.4858
lfoot -7.51612 -11.867
ltoes -1.6146
148
root -21.7071 17.6268 0.199382 81.5042 -80.3345 -86.3269
lowerback 6.58623 4.15768 8.32342
upperback 3.41819 5.89342 -3.24277
thorax 1.09758 3.11386 -8.35626
lowerneck -8.10169 -11.3065 -3.90493
upperneck -14.3238 -14.345 16.0735
head -1.40967 -7.66462 5.15855
rclavicle 3.37934e-014 -2.8625e-014
rhumerus 54.62 11.1311 10.0143
rradius 31.4318
rwrist -40.9434
rhand -2.55837 -10.8429
rfingers 7.12502
rthumb 23.1378 -39.4735
lclavicle 3.37934e-014 -2.8625e-014
lhumerus -26.7636 -4.79349 78.1344
lradius 8.62681
lwrist 4.14409
lhand -10.9793 -6.25245
lfingers 7.12502
lthumb 15.0404 23.1812
rfemur 9.70953 2.39965 26.3385
rtibia 29.3518
rfoot -10.1123 -0.506687
rtoes -27.5119
lfemur -7.71827 3.93802 -11.7639
ltibia 28.4865
lfoot -7.50504 -11.8979
ltoes -1.6873
149
root -21.7104 17.6272 0.198339 81.4862 -80.3109 -86.2783
lowerback 6.51406 4.15504 8.27124
upperback 3.44852 5.88056 -3.22638
thorax 1.15917 3.11005 -8.30064
lowerneck -7.96457 -11.3129 -3.94564
upperneck -14.4521 -14.3386 16.1705
head -1.45751 -7.67377 5.2072
rclavicle -2.96189e-014 0
rhumerus 54.5272 10.814 9.19423
rradius 31.4636
rwrist -40.9838
rhand -2.85775 -10.8846
rfingers 7.12502
rthumb 22.8505 -39.5509
lclavicle -2.96189e-014 0
lhumerus -26.9023 -4.51561 78.003
lradius 8.80804
lwrist 4.3245
lhand -10.9734 -6.31088
lfingers 7.12502
lthumb 15.0461 23.1224
rfemur 9.70587 2.39928 26.3666
rtibia 29.3159
rfoot -10.105 -0.501311
rtoes -27.4877
lfemur -7.74188 3.94822 -11.7374
ltibia 28.4944
lfoot -7.52154 -11.9052
ltoes -1.79842
150
root -21.7137 17.6273 0.196906 81.3475 -80.3094 -86.1213
lowerback 6.46007 4.14985 8.19675
upperback 3.46966 5.86469 -3.21915
thorax 1.19892 3.10298 -8.24435
lowerneck -7.7751 -11.3102 -3.96714
upperneck -14.6001 -14.3197 16.2554
head -1.52321 -7.67972 5.25459
rclavicle 5.00937e-014 -2.06736e-014
rhumerus 54.4246 10.513 8.36156
rradius 31.5101
rwrist -40.9956
rhand -3.09756 -10.8729
rfingers 7.12502
rthumb 22.6203 -39.5674
lclavicle 5.00937e-014 -2.06736e-014
lhumerus -27.0214 -4.25965 77.8529
lradius 8.94335
lwrist 4.45055
lhand -10.9577 -6.38529
lfingers 7.12502
lthumb 15.0613 23.0468
rfemur 9.71599 2.38534 26.3691
rtibia 29.2877
rfoot -10.0997 -0.501239
rtoes -27.4542
lfemur -7.75664 3.99173 -11.7284
ltibia 28.4955
lfoot -7.49634 -11.9522
ltoes -1.70567
151
root -21.7167 17.6277 0.195429 81.3373 -80.2813 -86.085
lowerback 6.39373 4.14873 8.16232
upperback 3.49376 5.85564 -3.21528
thorax 1.255 3.10112 -8.21327
lowerneck -7.62282 -11.3087 -3.95695
upperneck -14.743 -14.3053 16.3377
head -1.58393 -7.68832 5.29404
rclavicle 1.16885e-013 -4.45278e-014
rhumerus 54.3263 10.1965 7.50162
rradius 31.5541
rwrist -40.9574
rhand -3.3041 -10.8126
rfingers 7.12502
rthumb 22.4221 -39.5311
lclavicle 1.16885e-013 -4.45278e-014
lhumerus -27.1436 -4.00238 77.7029
lradius 9.1447
lwrist 4.59237
lhand -10.9398 -6.37998
lfingers 7.12502
lthumb 15.0785 23.0509
rfemur 9.71485 2.38971 26.4055
rtibia 29.2538
rfoot -10.0916 -0.501058
rtoes -27.43
lfemur -7.77542 3.97332 -11.694
ltibia 28.5035
lfoot -7.5008 -11.9238
ltoes -1.59385
152
root -21.7195 17.6283 0.194279 81.3081 -80.2835 -86.0166
lowerback 6.31709 4.14566 8.10445
upperback 3.51418 5.84223 -3.218
thorax 1.31015 3.09651 -8.17517
lowerneck -7.46962 -11.3082 -3.97149
upperneck -14.871 -14.2914 16.4217
head -1.63828 -7.69527 5.33691
rclavicle 8.40859e-014 -7.95139e-015
rhumerus 54.2406 9.86145 6.6278
rradius 31.5796
rwrist -40.8488
rhand -3.40868 -10.6855
rfingers 7.12502
rthumb 22.3217 -39.4162
lclavicle 8.40859e-014 -7.95139e-015
lhumerus -27.2384 -3.73947 77.5414
lradius 9.31601
lwrist 4.6779
lhand -10.9145 -6.37663
lfingers 7.12502
lthumb 15.1029 23.0524
rfemur 9.69858 2.38806 26.4032
rtibia 29.222
rfoot -10.0877 -0.49664
rtoes -27.3663
lfemur -7.81506 4.01933 -11.6898
ltibia 28.5095
lfoot -7.48255 -11.9738
ltoes -1.51104
